<?xml version="1.0" encoding="UTF-8"?>
<!-- Generator: Adobe Illustrator 24.0.1, SVG Export Plug-In . SVG Version: 6.00 Build 0)  -->
<svg xmlns="http://www.w3.org/2000/svg" xmlns:xlink="http://www.w3.org/1999/xlink" version="1.1" id="Capa_1" x="0px" y="0px" viewBox="0 0 818 143.1" style="enable-background:new 0 0 818 143.1;" xml:space="preserve">

<path d="M274.99975,156.38297c-43.41929,0 -78.61644,35.19853 -78.61644,78.61644c0,43.41929 35.19715,78.61782 78.61644,78.61782c43.41929,0 78.61644,-35.19853 78.61644,-78.61782c0,-43.41791 -35.19715,-78.61644 -78.61644,-78.61644zM294.65973,218.29554c0.00552,0.00966 0.01243,0.01519 0.02209,0.01795c10.69915,2.81804 21.99476,6.28639 27.23319,8.78824c4.82559,2.29889 12.79507,7.10239 11.98459,13.43296c-0.79667,6.18974 -10.90626,12.03292 -17.60133,15.9003c-1.389,0.79943 -2.88983,1.67204 -3.81905,2.28646c-0.0069,0.00414 -0.01243,0.01243 -0.01381,0.02071c-0.00138,0.00828 0.00138,0.01795 0.0069,0.02347c0.70416,1.2454 1.10595,2.63992 1.17084,4.06896c0.20435,0.24853 0.43078,0.4943 0.65032,0.73316l0.00276,0.00276c0.93889,1.01759 2.00203,2.17186 1.7397,3.82872c-0.1215,0.7732 -0.69036,1.40004 -1.44699,1.5961c-1.41109,0.19468 -2.84565,-0.13669 -4.0303,-0.92922c0.01657,0.48877 0.03728,0.96926 0.05385,1.34067c0.04694,0.99964 0.06904,1.65271 0.04694,2.09454c0,0.01795 0.01519,0.03314 0.03314,0.03314c2.4342,0.13945 4.85597,0.43769 7.25151,0.89056c1.34896,0.29547 2.3624,1.41247 2.52809,2.78352c0.00138,0.01657 0.01519,0.02899 0.03176,0.02899h4.96505c1.24402,0 2.43006,0.52605 3.26953,1.44561c0.83671,0.91956 1.24955,2.14977 1.13633,3.38827c-0.28995,2.3265 -2.28922,4.05792 -4.63229,4.01373h-100.35025c-1.2454,-0.00138 -2.43144,-0.52605 -3.26953,-1.44561c-0.83809,-0.91956 -1.25093,-2.14977 -1.13633,-3.38965c0.28995,-2.32512 2.28922,-4.05654 4.63229,-4.01097h4.74137c0.01657,0 0.03038,-0.01243 0.03176,-0.02899c0.16569,-1.36967 1.17913,-2.48666 2.52809,-2.78214c1.33791,-0.28167 6.48521,-1.19846 16.55475,-1.19846c2.66478,0 4.97609,0.06489 6.97398,0.16569c0.00966,0 0.01933,-0.00414 0.02623,-0.01243c0.0069,-0.00828 0.00966,-0.01795 0.0069,-0.02761c-0.47635,-2.22433 -0.79391,-4.7179 -1.12666,-7.49313c-0.46944,-4.57983 -1.2454,-9.12513 -2.32512,-13.60141c-0.00414,-0.01657 -0.02071,-0.02899 -0.03866,-0.02485c-2.29336,0.42526 -4.62539,0.62132 -6.95741,0.58266c-2.26851,0 -4.56188,-0.12564 -6.55425,-0.28581c-0.75249,-0.06075 -1.44837,-0.42802 -1.92195,-1.01621c-0.18225,-0.23196 -0.32585,-0.49153 -0.42388,-0.76906c-1.35586,0.04142 -2.62612,0.07042 -3.81215,0.07042c-6.23392,0 -10.21728,-0.78839 -12.84892,-4.5674c-2.4701,-3.54567 -1.57954,-10.56522 1.97856,-15.65177c1.93162,-2.75452 6.02819,-6.62604 9.98946,-10.36502c3.51115,-3.31647 7.13967,-6.7434 8.23181,-8.50934c5.12935,-8.29395 7.82588,-12.25245 12.35048,-12.10195v-0.05247c-0.06213,-1.84463 0.89056,-3.57467 2.48252,-4.50803c0.00828,-0.00552 0.01381,-0.01381 0.01519,-0.02347c0.86847,-6.80416 2.35135,-13.43296 9.03539,-19.73868c2.19119,-2.00756 4.76622,-3.54981 7.56769,-4.53702c1.06591,-0.46944 2.19257,-0.78425 3.34685,-0.93474l0.27062,-0.09389c4.81593,-2.80975 14.3249,-1.01068 21.87464,6.98503c7.85764,8.32156 5.97849,21.38863 5.04789,24.72582c0,0.00552 0,0.00966 0,0.01519c0.14912,0.62961 0.17397,1.28268 0.07318,1.92333l-1.19984,7.63673c-0.36313,2.26437 -2.21466,3.9944 -4.49836,4.20427c-0.01381,0.00138 -0.02485,0.00966 -0.02761,0.02209c-0.4943,1.71623 -1.11286,3.39517 -1.85154,5.02027c-0.00414,0.00966 -0.00414,0.02071 0,0.02899z" fill="#009b77" style="fill: rgb(255, 255, 255);" />;
</svg>